<?xml version="1.0" encoding="UTF-8"?>
<svg version="1.1" xmlns="http://www.w3.org/2000/svg" width="512" height="512">
<path d="M0 0 C1.61344028 -0.00417776 3.22687762 -0.0096577 4.84030956 -0.01631981 C9.2543716 -0.03073592 13.6682463 -0.02654166 18.08231843 -0.019153 C22.85076455 -0.01441392 27.61917058 -0.02693796 32.38760376 -0.03717041 C41.72323444 -0.05435127 51.0587978 -0.05519961 60.39444018 -0.04995751 C67.98702648 -0.045912 75.57959292 -0.0473639 83.17217827 -0.05270576 C84.79469589 -0.0538284 84.79469589 -0.0538284 86.44999165 -0.05497371 C88.64766289 -0.05650524 90.84533412 -0.05804359 93.04300534 -0.05958868 C113.64630915 -0.07331202 134.24957497 -0.06787798 154.85287791 -0.05640347 C173.67778697 -0.04647897 192.50259764 -0.05939852 211.32749153 -0.08333766 C230.67710276 -0.1077577 250.02666823 -0.11732891 269.37629455 -0.11068493 C280.23137677 -0.10719818 291.0863834 -0.10938841 301.94145393 -0.12693596 C311.18573994 -0.1416946 320.42989718 -0.14224602 329.67418075 -0.12486505 C334.38518181 -0.11638134 339.0959532 -0.11414059 343.80694199 -0.1295166 C348.13078681 -0.14345342 352.45420718 -0.13848638 356.778028 -0.11927737 C358.33118294 -0.11554428 359.88437263 -0.11836038 361.43749637 -0.12888902 C388.22704254 -0.29738867 411.88994922 9.53140532 431.03001404 28.38768005 C449.62073702 46.94736677 458.33939081 70.49383236 458.53001404 96.38768005 C458.30188215 124.84571933 447.83548416 147.5524349 427.69407654 167.7275238 C405.74620892 188.50341791 379.83944566 193.00883019 350.89476013 192.90184021 C348.40117461 192.90731065 345.90759246 192.91455766 343.41401672 192.9234314 C338.07821049 192.93868429 332.74260327 192.94211851 327.4067955 192.93466568 C319.68484944 192.92407747 311.96308446 192.93762785 304.24116249 192.95713024 C291.69796001 192.98835135 279.15479616 193.00346456 266.61155701 193.00682068 C265.48930733 193.00712666 265.48930733 193.00712666 264.34438594 193.00743882 C263.59525897 193.00764219 262.84613201 193.00784556 262.07430422 193.00805509 C251.43111702 193.01098105 240.78794171 193.01780007 230.14476013 193.02928162 C229.39448738 193.03008691 228.64421462 193.03089221 227.87120633 193.0317219 C215.3579934 193.04548012 202.84480176 193.06726502 190.33160841 193.09315145 C182.62778009 193.10857127 174.92402144 193.11581206 167.22017796 193.11235653 C161.32568541 193.11007397 155.43123097 193.1174279 149.53674698 193.12823677 C147.12083824 193.13092078 144.70492288 193.13016577 142.28901672 193.1257267 C138.99266819 193.12008807 135.69655738 193.12662939 132.40022278 193.13612366 C131.44390784 193.13146044 130.4875929 193.12679723 129.50229871 193.12199271 C122.92302914 193.15901865 117.38499748 193.3466944 112.21751404 197.82518005 C108.2792254 202.43860388 107.58455524 204.97786418 107.71360779 210.87986755 C108.18043421 214.57989919 109.55564984 216.64581703 112.03001404 219.38768005 C117.01066092 223.09123799 121.82336251 223.51051026 127.8926897 223.52634525 C129.07306586 223.5318197 130.25344202 223.53729414 131.46958715 223.54293448 C133.40877878 223.54440164 133.40877878 223.54440164 135.387146 223.54589844 C136.77739564 223.55046571 138.16764392 223.55546598 139.55789059 223.560862 C143.37751966 223.57443366 147.19713984 223.58185866 151.01678669 223.58828866 C155.13603896 223.59629687 159.25527275 223.60999321 163.37451172 223.6230011 C170.51116672 223.64475786 177.6478236 223.66290529 184.7844944 223.67860603 C195.10294122 223.70131193 205.42136757 223.72945377 215.73979702 223.75892531 C232.48048858 223.80659238 249.2211885 223.84985897 265.9618988 223.8903656 C282.22460074 223.92972503 298.48729524 223.97115233 314.74998474 224.0153656 C315.75230164 224.01808987 316.75461853 224.02081414 317.78730867 224.02362097 C322.81560353 224.03730052 327.84389828 224.05102078 332.87219298 224.06476128 C374.5914512 224.17871216 416.31072556 224.2854514 458.03001404 224.38768005 C458.03001404 229.66768005 458.03001404 234.94768005 458.03001404 240.38768005 C414.37668617 240.47894298 370.7233709 240.54972524 327.06996635 240.59194137 C321.91553548 240.59694416 316.76110479 240.60212145 311.60667419 240.60740662 C310.58052582 240.60845586 309.55437744 240.6095051 308.49713366 240.61058614 C291.8848869 240.62798833 275.27269554 240.65952501 258.66048165 240.69629124 C241.61306974 240.7337058 224.56568684 240.755917 207.51823556 240.76403403 C197.00020445 240.76952073 186.48232995 240.78684605 175.96434705 240.81934592 C168.75042053 240.84050015 161.53657491 240.84687803 154.32261963 240.84168556 C150.16137583 240.83912521 146.00040559 240.84303242 141.83921051 240.86450195 C138.02543746 240.88403484 134.21212071 240.8849068 130.3983262 240.87127563 C128.37364913 240.86879788 126.34897705 240.88598933 124.32437861 240.90400529 C114.36058503 240.83886518 106.00999862 239.04764207 98.56126404 232.09080505 C91.26977663 223.98088538 89.26344163 215.26831062 89.59642029 204.50486755 C90.29265778 195.13060452 95.44013675 188.16478091 102.29563904 182.10643005 C109.77966979 177.40218215 116.78879932 175.79582274 125.53993225 175.88215637 C126.54990843 175.87606625 127.55988461 175.86997613 128.60046613 175.86370146 C131.95954571 175.84817881 135.31790433 175.86085932 138.67698669 175.8735199 C141.09582464 175.8680555 143.51465913 175.86081199 145.93348694 175.85192871 C151.1313206 175.8366156 156.32901448 175.8332709 161.52685928 175.84069443 C169.05932875 175.85125421 176.59161161 175.83776461 184.12405626 175.81822987 C196.370216 175.7869336 208.61633612 175.77188927 220.86253357 175.76853943 C221.59435405 175.76833544 222.32617453 175.76813145 223.08017139 175.76792128 C223.81285286 175.76771792 224.54553432 175.76751455 225.30041826 175.76730502 C235.67204086 175.76438909 246.04365115 175.75759196 256.41526794 175.74607849 C257.14436916 175.7452732 257.87347038 175.7444679 258.62466557 175.7436382 C270.82016708 175.72984044 283.01564698 175.70801887 295.21112859 175.68220866 C302.71562257 175.6668406 310.2200454 175.65953536 317.72455482 175.66300358 C323.48827733 175.66530186 329.2519555 175.65787783 335.01566696 175.64712334 C337.36651221 175.64445749 339.71736428 175.64516317 342.06820679 175.64963341 C370.80981305 175.70047359 397.05159672 172.61065125 418.60472107 151.83201599 C434.40349117 135.82216263 440.58299209 115.31395081 440.44798279 93.33274841 C440.00846676 75.75348077 433.49496197 58.82714679 422.03001404 45.38768005 C421.60720154 44.82307068 421.18438904 44.2584613 420.74876404 43.67674255 C409.65616184 29.42403857 391.53375592 21.20996885 374.03001404 18.38768005 C365.73391438 17.36535072 357.49042611 17.24806032 349.14117432 17.26742554 C347.76637159 17.2669886 346.39156894 17.26611143 345.01676673 17.26483637 C341.26768782 17.26261555 337.51863783 17.2665794 333.7695626 17.27161443 C329.71586671 17.27595363 325.6621723 17.27447006 321.60847473 17.27371216 C314.59469024 17.27318912 307.58091509 17.27631294 300.56713295 17.28195 C290.42651965 17.2900948 280.28591084 17.29268327 270.14529463 17.29393799 C253.6907682 17.29612383 237.23624675 17.30277122 220.78172302 17.3122406 C204.80255661 17.32142683 188.82339155 17.32850174 172.84422302 17.33274841 C171.36551466 17.3331425 171.36551466 17.3331425 169.85693339 17.33354454 C164.91118279 17.33484963 159.96543219 17.33611333 155.01968157 17.33735645 C114.02312227 17.34771449 73.02656844 17.36532007 32.03001404 17.38768005 C32.51284851 18.13026062 32.99568298 18.87284119 33.4931488 19.63792419 C34.12535339 20.61882019 34.75755798 21.59971619 35.40892029 22.6103363 C36.3497345 24.06451965 36.3497345 24.06451965 37.30955505 25.54808044 C43.74521848 36.1700758 43.60616453 50.07949693 41.33860779 62.0322113 C39.214759 68.95471425 36.27776765 73.01604963 32.03001404 79.38768005 C42.92001404 79.88268005 42.92001404 79.88268005 54.03001404 80.38768005 C54.03001404 85.66768005 54.03001404 90.94768005 54.03001404 96.38768005 C45.11041169 96.47848258 36.19112234 96.5516829 27.27116013 96.59492874 C23.12810172 96.61569714 18.9853792 96.64381477 14.84251404 96.68943787 C10.8354035 96.73328377 6.82861357 96.7568977 2.82128143 96.76718903 C1.30163281 96.77451163 -0.21800067 96.78880849 -1.73751068 96.81060028 C-17.84911409 97.03221939 -29.75031294 93.1805222 -41.71998596 82.07518005 C-51.71289634 71.51663324 -54.48438378 59.96940082 -54.3896637 45.85740662 C-53.9788834 31.73501767 -48.13286697 20.65902279 -37.90748596 10.98143005 C-26.30560421 1.43794668 -14.57017492 -0.06158087 0 0 Z M-29.96998596 27.13768005 C-36.65305094 35.79788651 -38.17400664 44.58873172 -36.96998596 55.38768005 C-35.07600978 63.52393276 -30.58800561 70.25179509 -23.65748596 74.95799255 C-15.03429419 79.92200098 -5.92909186 80.96583795 3.88938904 78.73924255 C12.8323338 75.48978747 18.74320377 69.85369423 23.11985779 61.5009613 C26.45099036 53.76644319 26.31990443 43.86284849 23.46751404 36.01268005 C19.50674637 27.57873772 13.55873192 22.06086169 5.03001404 18.38768005 C-7.50253756 14.27251386 -20.93180833 17.71652879 -29.96998596 27.13768005 Z " fill="#4B4B4B" transform="translate(53.96998596191406,31.612319946289063)"/>
<path d="M0 0 C2.16967259 0.00056524 4.33934557 0.00024535 6.50901794 -0.00088501 C12.35508482 -0.00145511 18.2010684 0.01024334 24.04711604 0.02426291 C30.17297227 0.03682777 36.29883075 0.03794528 42.42469788 0.04031372 C54.00523791 0.04651165 65.58573985 0.0628995 77.16626316 0.0830127 C90.35861588 0.10542439 103.55097048 0.11637835 116.74333751 0.12640357 C143.86284828 0.14726733 170.98232532 0.18241029 198.10180664 0.22705078 C198.10180664 5.50705078 198.10180664 10.78705078 198.10180664 16.22705078 C195.64139923 16.23513763 193.18099182 16.24322449 190.64602661 16.2515564 C167.37313548 16.32896211 144.10030141 16.41699119 120.82748604 16.51457787 C108.8649025 16.5644883 96.90232508 16.61093176 84.93969727 16.64892578 C74.5010063 16.6820888 64.0623661 16.72204979 53.62373149 16.76984084 C48.10754658 16.79486693 42.59139429 16.81671557 37.07516861 16.83039474 C-30.2797985 17.00436675 -86.873234 26.35806144 -136.25366211 75.57470703 C-164.13314127 105.18078417 -183.85397094 148.64523308 -184.10131836 189.65283203 C-184.10837799 190.43378235 -184.11543762 191.21473267 -184.12271118 192.01934814 C-184.48706393 215.30850165 -184.48706393 215.30850165 -180.89819336 238.22705078 C-180.68888184 239.06397461 -180.47957031 239.90089844 -180.26391602 240.76318359 C-178.66931936 246.98132059 -176.85866752 253.11505682 -174.89819336 259.22705078 C-174.67292969 259.9342627 -174.44766602 260.64147461 -174.21557617 261.37011719 C-168.43718307 279.07238425 -159.29672445 295.55263933 -147.89819336 310.22705078 C-147.24463867 311.09072266 -146.59108398 311.95439453 -145.91772461 312.84423828 C-117.18006924 349.93655223 -75.26279699 374.01339531 -28.89819336 381.22705078 C-24.99028748 381.701799 -21.08109867 382.04127777 -17.15579224 382.33602905 C-16.03990538 382.41991107 -14.92401852 382.50379309 -13.77431691 382.59021699 C-0.33251177 383.51296953 13.11462056 383.5381941 26.58146858 383.54372501 C30.40383682 383.54749364 34.22616431 383.56268351 38.04850769 383.57633972 C44.63803788 383.59838747 51.22755314 383.61353428 57.81711197 383.62370682 C67.34396889 383.63842419 76.87077365 383.66399542 86.39759956 383.6920381 C101.86213901 383.73727196 117.32668608 383.77398227 132.79125977 383.80517578 C147.79485404 383.83545806 162.79842982 383.86985196 177.80200195 383.90966797 C178.73010076 383.91212952 179.65819956 383.91459107 180.61442257 383.91712721 C185.27140056 383.92950368 189.92837833 383.94195985 194.585356 383.95445561 C233.09081393 384.05767207 271.59629434 384.14684517 310.10180664 384.22705078 C310.10180664 389.50705078 310.10180664 394.78705078 310.10180664 400.22705078 C268.23253516 400.31850796 226.36327798 400.38919582 184.49392614 400.4313121 C179.53908211 400.4363143 174.58423827 400.44149165 169.62939453 400.44677734 C168.64306819 400.44782659 167.65674184 400.44887583 166.64052682 400.44995686 C150.71739728 400.46731236 134.79432612 400.49882296 118.87123109 400.53566197 C102.50514441 400.5732071 86.13908809 400.59531516 69.77296013 400.60340476 C59.69257874 400.60886454 49.61236245 400.62604186 39.53203195 400.65871665 C32.59832685 400.68003258 25.66470579 400.68621269 18.73097039 400.68105629 C14.74406083 400.67852074 10.75743755 400.68211277 6.77058029 400.70387268 C-52.27105635 401.00951826 -103.86273149 381.93369509 -146.08569336 340.35205078 C-156.89652135 329.47989961 -165.77541824 317.19674933 -173.89819336 304.22705078 C-174.27685547 303.62763672 -174.65551758 303.02822266 -175.0456543 302.41064453 C-186.87352346 283.4121938 -194.17347659 262.00042421 -198.89819336 240.22705078 C-199.07463379 239.46875977 -199.25107422 238.71046875 -199.43286133 237.92919922 C-205.28800003 212.03660368 -204.03145719 180.8784471 -197.89819336 155.22705078 C-197.66213379 154.23930664 -197.42607422 153.2515625 -197.18286133 152.23388672 C-184.5483306 101.41879795 -152.44105077 56.92652704 -107.83569336 29.41455078 C-74.40676898 9.3636296 -38.8912876 -0.14309591 0 0 Z " fill="#4B4B4B" transform="translate(201.898193359375,111.77294921875)"/>
<path d="M0 0 C5.61 0 11.22 0 17 0 C17.08636719 1.42828125 17.17273438 2.8565625 17.26171875 4.328125 C19.51132059 37.13105039 30.30150337 68.11730721 51 94 C51.46519043 94.58330078 51.93038086 95.16660156 52.40966797 95.76757812 C76.57651687 125.70766356 110.6544492 145.74293339 149.10107422 150.24609375 C176.11138746 153.04980484 195.1596563 142.995279 216.92333984 128.34375 C238.26787022 113.97714078 259.37043401 102.61755817 285 98 C285.96035156 97.82339844 286.92070312 97.64679688 287.91015625 97.46484375 C298.39367549 95.74219974 308.77255298 95.60055434 319.375 95.625 C320.30275238 95.62587616 321.23050476 95.62675232 322.18637085 95.62765503 C350.77506636 95.71662815 376.88367249 100.92773139 402 115 C402.60440918 115.33725098 403.20881836 115.67450195 403.83154297 116.02197266 C411.69148179 120.46308049 419.14451076 125.42350934 426.5625 130.5625 C443.90014268 142.55761871 459.06441251 149.13627197 480 152 C480 157.28 480 162.56 480 168 C468.6514151 168.40171982 459.84344339 167.64271926 449 164 C448.030625 163.68417969 447.06125 163.36835938 446.0625 163.04296875 C433.2818636 158.30348275 421.74248223 149.82612966 410.8125 141.8125 C377.13151716 117.21754974 335.62087574 108.78200368 294.5546875 114.75 C268.39279764 118.92549786 246.33752307 129.24045137 224.88085938 144.65478516 C197.6213628 164.15112811 170.46872699 172.15198785 136.94628906 166.87304688 C93.79168873 158.90171541 55.82161503 133.25621041 30.84960938 97.34570312 C13.02844916 71.32741641 -0.41989664 39.98225504 -0.0625 8 C-0.041875 5.36 -0.02125 2.72 0 0 Z " fill="#4B4B4B" transform="translate(32,312)"/>
<path d="M0 0 C1.29683212 0.0028299 2.59366425 0.00565979 3.92979431 0.00857544 C7.34760503 0.01614629 10.76524091 0.03573691 14.1829834 0.0579834 C17.68251176 0.07858446 21.18206887 0.08760739 24.68164062 0.09765625 C31.52611995 0.1189903 38.37045541 0.15411751 45.21484375 0.1953125 C45.21484375 5.4753125 45.21484375 10.7553125 45.21484375 16.1953125 C43.82885986 16.21513184 42.44287598 16.23495117 41.01489258 16.25537109 C35.81680744 16.33209707 30.61897812 16.4207049 25.42114258 16.51269531 C23.18193657 16.55071075 20.94267517 16.5856086 18.70336914 16.6171875 C-11.5329652 16.80093472 -11.5329652 16.80093472 -36.7265625 32.07421875 C-46.58112065 42.60986947 -49.41491686 54.65292243 -49.09375 68.67578125 C-48.46624518 81.16078379 -42.4076275 91.06221247 -33.47265625 99.5078125 C-22.31069187 108.9203719 -9.65381301 111.12491064 4.56640625 111.37109375 C5.56658028 111.38905502 5.56658028 111.38905502 6.58695984 111.40737915 C9.35990266 111.45577701 12.13243197 111.50321457 14.90576172 111.52124023 C41.09242991 111.72344188 61.69489158 123.20055059 82.40234375 138.3828125 C116.08332659 162.97776276 157.59396801 171.41330882 198.66015625 165.4453125 C226.17664516 161.05361751 248.46174252 149.69405018 271.078125 133.69384766 C287.49917882 122.17734533 304.91484032 111.89521045 325.52734375 112.1328125 C328.06421875 112.1534375 330.60109375 112.1740625 333.21484375 112.1953125 C333.21484375 117.4753125 333.21484375 122.7553125 333.21484375 128.1953125 C331.99410156 128.35386719 330.77335937 128.51242187 329.515625 128.67578125 C309.45805484 131.44361146 294.73139355 139.42603753 278.13890076 150.62324524 C235.25733407 179.56037978 187.89847105 191.92872345 136.10742188 182.10253906 C120.2648685 178.67324089 105.34383126 173.11155373 91.21484375 165.1953125 C90.61043457 164.85806152 90.00602539 164.52081055 89.38330078 164.17333984 C81.52336196 159.73223201 74.07033299 154.77180316 66.65234375 149.6328125 C43.86639397 133.86826034 25.07902441 129.00018679 -2.53125 128.71679688 C-20.7240569 128.34569982 -37.32106845 122.12154906 -50.23046875 109.05078125 C-64.94851289 92.5998787 -67.96130633 74.46505815 -66.78515625 53.1953125 C-65.09851817 37.93207287 -55.93883439 24.31143919 -44.78515625 14.1953125 C-31.010095 3.61559785 -17.10578511 -0.14193029 0 0 Z " fill="#4B4B4B" transform="translate(178.78515625,175.8046875)"/>
<path d="M0 0 C2.88959254 1.30906768 4.95569234 2.70665595 7.19213867 4.94921875 C7.78923141 5.54323486 8.38632416 6.13725098 9.00151062 6.74926758 C9.95015739 7.70869263 9.95015739 7.70869263 10.91796875 8.6875 C11.57581863 9.34580811 12.23366852 10.00411621 12.91145325 10.68237305 C14.29807992 12.07201594 15.68228022 13.46408362 17.06420898 14.85839844 C19.18485617 16.99733337 21.31342786 19.12812668 23.44335938 21.2578125 C24.789536 22.60890339 26.13525506 23.96045036 27.48046875 25.3125 C28.11897263 25.9521167 28.7574765 26.5917334 29.41532898 27.25073242 C30.00296524 27.84474854 30.5906015 28.43876465 31.19604492 29.05078125 C31.71470627 29.57325439 32.23336761 30.09572754 32.76774597 30.6340332 C35.25203277 33.38789174 35.53349855 36.16692304 35.44946289 39.82470703 C33.68120631 48.38264624 20.67810712 57.42833041 14.5625 63.5 C13.3415631 64.71591114 12.12085808 65.93205516 10.90039062 67.1484375 C7.93625987 70.10164966 4.96901042 73.05169398 2 76 C-1.63303084 74.30413874 -3.94549046 72.26199512 -6.75 69.375 C-7.54921875 68.55773437 -8.3484375 67.74046875 -9.171875 66.8984375 C-9.77515625 66.27195312 -10.3784375 65.64546875 -11 65 C-6.56779463 56.13558926 1.99206799 50.00793201 9 43 C-19.38 42.67 -47.76 42.34 -77 42 C-77 36.72 -77 31.44 -77 26 C-51.26 25.67 -25.52 25.34 1 25 C-2.96 21.04 -6.92 17.08 -11 13 C-9.07859132 9.15718264 -7.4073184 7.19568073 -4.375 4.25 C-3.55773437 3.45078125 -2.74046875 2.6515625 -1.8984375 1.828125 C-1.27195312 1.22484375 -0.64546875 0.6215625 0 0 Z " fill="#4B4B4B" transform="translate(477,350)"/>
<path d="M0 0 C32.67 0 65.34 0 99 0 C99 5.28 99 10.56 99 16 C66.33 16 33.66 16 0 16 C0 10.72 0 5.44 0 0 Z " fill="#4C4C4C" transform="translate(189,376)"/>
<path d="M0 0 C5.28 0 10.56 0 16 0 C16 5.28 16 10.56 16 16 C10.72 16 5.44 16 0 16 C0 10.72 0 5.44 0 0 Z " fill="#4C4C4C" transform="translate(368,376)"/>
<path d="M0 0 C5.28 0 10.56 0 16 0 C16 5.28 16 10.56 16 16 C10.72 16 5.44 16 0 16 C0 10.72 0 5.44 0 0 Z " fill="#4C4C4C" transform="translate(336,376)"/>
<path d="M0 0 C5.28 0 10.56 0 16 0 C16 5.28 16 10.56 16 16 C10.72 16 5.44 16 0 16 C0 10.72 0 5.44 0 0 Z " fill="#4C4C4C" transform="translate(304,376)"/>
<path d="M0 0 C5.28 0 10.56 0 16 0 C16 5.28 16 10.56 16 16 C10.72 16 5.44 16 0 16 C0 10.72 0 5.44 0 0 Z " fill="#4C4C4C" transform="translate(32,280)"/>
<path d="M0 0 C5.28 0 10.56 0 16 0 C16 5.28 16 10.56 16 16 C10.72 16 5.44 16 0 16 C0 10.72 0 5.44 0 0 Z " fill="#4C4C4C" transform="translate(272,176)"/>
<path d="M0 0 C5.28 0 10.56 0 16 0 C16 5.28 16 10.56 16 16 C10.72 16 5.44 16 0 16 C0 10.72 0 5.44 0 0 Z " fill="#4C4C4C" transform="translate(240,176)"/>
<path d="M0 0 C2.12890625 0.484375 2.12890625 0.484375 4.69140625 2.609375 C6.38310394 5.99277038 6.75086556 7.75261914 6.12890625 11.484375 C4.27871926 14.56801999 3.06737147 16.12342684 -0.30859375 17.421875 C-3.41315426 17.49759599 -5.15409807 16.98587261 -7.87109375 15.484375 C-10.26551746 13.17251762 -10.81582294 11.855479 -11.30859375 8.546875 C-10.30226429 1.50256877 -6.64840622 -0.39430416 0 0 Z " fill="#4B4B4B" transform="translate(145.87109375,379.515625)"/>
<path d="M0 0 C2.12890625 0.4140625 2.12890625 0.4140625 4.69140625 1.9765625 C6.70105349 5.38422522 6.67568764 7.51824513 6.12890625 11.4140625 C4.69140625 14.3515625 4.69140625 14.3515625 2.12890625 16.4140625 C-1.01676088 17.12400205 -3.72612469 17.12961509 -6.87109375 16.4140625 C-9.93971731 13.86935028 -10.71933038 12.32464269 -11.37109375 8.4140625 C-10.20021748 1.3888049 -6.66234591 -0.41708261 0 0 Z " fill="#4C4C4C" transform="translate(95.87109375,331.5859375)"/>
<path d="M0 0 C2.12890625 0.484375 2.12890625 0.484375 4.69140625 2.609375 C6.38310394 5.99277038 6.75086556 7.75261914 6.12890625 11.484375 C4.27871926 14.56801999 3.06737147 16.12342684 -0.30859375 17.421875 C-3.41315426 17.49759599 -5.15409807 16.98587261 -7.87109375 15.484375 C-10.26551746 13.17251762 -10.81582294 11.855479 -11.30859375 8.546875 C-10.30226429 1.50256877 -6.64840622 -0.39430416 0 0 Z " fill="#4B4B4B" transform="translate(265.87109375,139.515625)"/>
<path d="M0 0 C2.12890625 0.4140625 2.12890625 0.4140625 4.69140625 1.9765625 C6.70105349 5.38422522 6.67568764 7.51824513 6.12890625 11.4140625 C4.69140625 14.3515625 4.69140625 14.3515625 2.12890625 16.4140625 C-1.01676088 17.12400205 -3.72612469 17.12961509 -6.87109375 16.4140625 C-9.93971731 13.86935028 -10.71933038 12.32464269 -11.37109375 8.4140625 C-10.20021748 1.3888049 -6.66234591 -0.41708261 0 0 Z " fill="#4C4C4C" transform="translate(415.87109375,131.5859375)"/>
<path d="M0 0 C2.12890625 0.4140625 2.12890625 0.4140625 4.69140625 1.9765625 C6.70105349 5.38422522 6.67568764 7.51824513 6.12890625 11.4140625 C4.69140625 14.3515625 4.69140625 14.3515625 2.12890625 16.4140625 C-1.01676088 17.12400205 -3.72612469 17.12961509 -6.87109375 16.4140625 C-9.93971731 13.86935028 -10.71933038 12.32464269 -11.37109375 8.4140625 C-10.20021748 1.3888049 -6.66234591 -0.41708261 0 0 Z " fill="#4C4C4C" transform="translate(255.87109375,51.5859375)"/>
<path d="M0 0 C2.12890625 0.4140625 2.12890625 0.4140625 4.69140625 1.9765625 C6.70105349 5.38422522 6.67568764 7.51824513 6.12890625 11.4140625 C4.69140625 14.3515625 4.69140625 14.3515625 2.12890625 16.4140625 C-1.01676088 17.12400205 -3.72612469 17.12961509 -6.87109375 16.4140625 C-9.93971731 13.86935028 -10.71933038 12.32464269 -11.37109375 8.4140625 C-10.20021748 1.3888049 -6.66234591 -0.41708261 0 0 Z " fill="#4C4C4C" transform="translate(139.87109375,51.5859375)"/>
</svg>
