<?xml version="1.0" standalone="no"?>
<!DOCTYPE svg PUBLIC "-//W3C//DTD SVG 20010904//EN"
 "http://www.w3.org/TR/2001/REC-SVG-20010904/DTD/svg10.dtd">
<svg version="1.0" xmlns="http://www.w3.org/2000/svg"
 width="400.000000pt" height="400.000000pt" viewBox="0 0 400.000000 400.000000"
 preserveAspectRatio="xMidYMid meet">

<g transform="translate(0.000000,400.000000) scale(0.100000,-0.100000)"
fill="#000000" stroke="none">
<path d="M300 3556 c-9 -12 -9 -20 2 -40 7 -14 35 -70 61 -123 26 -54 52 -105
57 -113 5 -8 29 -58 55 -110 25 -52 50 -102 55 -110 6 -8 16 -31 25 -50 8 -19
19 -42 25 -50 6 -8 19 -35 30 -60 11 -25 24 -52 30 -60 5 -8 16 -31 25 -50 8
-19 19 -42 25 -50 6 -8 19 -35 30 -60 11 -25 24 -52 30 -60 5 -8 16 -31 25
-50 8 -19 19 -42 25 -50 6 -8 19 -35 30 -60 11 -25 24 -52 30 -60 5 -8 16 -31
25 -50 8 -19 19 -42 25 -50 6 -8 19 -35 30 -60 11 -25 24 -52 30 -60 5 -8 16
-31 25 -50 8 -19 19 -42 25 -50 5 -8 18 -35 30 -60 11 -25 24 -52 30 -60 5 -8
16 -31 25 -50 8 -19 19 -42 25 -50 9 -13 17 -30 51 -105 5 -11 14 -27 19 -35
6 -8 17 -31 25 -50 9 -19 20 -42 25 -50 6 -8 19 -35 30 -60 11 -25 24 -52 30
-60 5 -8 30 -58 55 -110 25 -52 50 -102 55 -110 5 -8 115 -229 245 -490 130
-261 248 -487 262 -502 21 -22 36 -28 69 -28 50 0 74 8 74 24 0 7 11 23 24 36
14 12 28 37 32 54 4 17 17 44 30 59 13 16 24 36 24 45 0 10 11 34 24 53 14 20
28 49 32 65 4 16 18 42 31 57 12 16 23 36 23 45 0 10 11 33 23 52 13 19 27 48
31 64 4 16 18 43 32 59 13 16 24 37 24 48 0 11 11 35 24 52 13 18 27 45 30 61
4 16 18 43 32 59 13 16 24 37 24 48 0 11 11 35 24 52 13 18 27 46 30 63 4 18
16 40 26 49 10 9 22 31 26 49 3 17 16 45 29 61 12 17 25 44 29 62 4 17 16 39
26 48 10 9 22 31 26 48 4 18 17 45 29 62 13 16 26 44 29 61 4 18 16 40 26 49
10 9 22 31 26 49 3 17 16 45 29 61 12 17 25 44 29 62 4 17 16 39 26 48 10 9
22 31 26 49 3 17 16 45 29 61 12 17 25 44 29 62 4 17 16 39 26 48 10 9 22 31
26 48 4 18 17 45 29 62 13 16 26 44 29 61 4 18 16 40 26 49 10 9 22 31 26 49
3 17 16 45 29 61 12 17 25 44 29 62 4 17 16 39 26 48 10 9 22 31 26 49 3 17
17 45 30 63 13 17 24 38 24 46 0 8 11 30 23 49 13 19 27 48 31 64 4 16 18 43
32 61 13 17 24 38 24 46 0 8 11 30 23 49 13 19 27 47 31 62 4 16 18 45 32 65
13 19 24 42 24 50 0 8 11 28 23 45 13 17 27 44 31 60 4 16 18 45 32 65 13 19
24 42 24 50 0 8 11 29 25 47 30 39 31 50 6 64 -13 7 -561 10 -1699 10 -1454 0
-1681 -2 -1692 -14z m3104 -302 c23 -22 20 -48 -8 -81 -14 -16 -28 -43 -32
-59 -4 -16 -18 -43 -31 -60 -12 -17 -23 -40 -23 -52 0 -11 -11 -33 -23 -49
-13 -15 -27 -41 -31 -57 -4 -16 -18 -43 -32 -61 -13 -17 -24 -41 -24 -53 0
-11 -11 -33 -23 -49 -13 -15 -27 -41 -31 -57 -4 -16 -18 -45 -32 -65 -13 -19
-24 -43 -24 -53 0 -9 -11 -29 -23 -45 -13 -15 -27 -41 -31 -57 -4 -16 -18 -45
-32 -65 -13 -19 -24 -43 -24 -53 0 -9 -11 -29 -23 -45 -13 -15 -27 -41 -31
-57 -4 -16 -18 -45 -32 -65 -13 -19 -24 -43 -24 -53 0 -9 -11 -29 -23 -45 -13
-15 -27 -41 -31 -57 -4 -16 -18 -45 -32 -65 -13 -19 -24 -43 -24 -52 0 -9 -9
-28 -20 -42 -12 -14 -26 -41 -32 -59 -6 -18 -22 -49 -35 -68 -12 -19 -23 -42
-23 -51 0 -9 -9 -28 -20 -42 -12 -14 -26 -41 -32 -59 -6 -18 -19 -44 -28 -58
-9 -14 -22 -40 -28 -58 -6 -18 -20 -45 -32 -59 -11 -14 -20 -33 -20 -42 0 -9
-11 -32 -23 -51 -13 -19 -29 -50 -35 -68 -6 -18 -20 -45 -32 -59 -11 -14 -20
-33 -20 -43 0 -9 -10 -33 -23 -52 -13 -18 -29 -49 -35 -66 -6 -18 -20 -46 -32
-61 -11 -16 -20 -35 -20 -43 0 -7 -10 -29 -22 -48 -12 -19 -31 -57 -43 -85
-14 -34 -29 -54 -49 -64 -38 -18 -56 -6 -76 46 -8 22 -22 50 -31 64 -8 13 -21
40 -29 59 -7 19 -19 42 -25 50 -6 8 -18 31 -25 50 -7 19 -21 46 -30 60 -9 14
-23 41 -30 60 -7 19 -19 42 -25 50 -6 8 -18 31 -25 50 -7 19 -21 46 -30 60 -9
14 -23 41 -30 60 -7 19 -19 42 -27 51 -7 8 -13 19 -13 23 0 6 -81 173 -100
206 -5 8 -183 364 -395 790 -212 426 -390 779 -395 784 -19 19 -11 66 13 76
12 5 548 9 1264 9 1116 1 1243 -1 1257 -15z"/>
</g>
</svg>
